# xmcd CD database file
#
# Track frame offsets:
#	150
#	6300
#	23342
#	42115
#	63265
#	69502
#	82952
#	90530
#	111670
#	117762
#	134790
#	154687
#	174180
#	193307
#	213665
#	232247
#	238222
#	265110
#
# Disc length: 3755 seconds
#
# Revision: 0
# Processed by: cddbd v1.5PL3 Copyright (c) Steve Scherf et al.
# Submitted via: CDex 1.51
#
DISCID=fb0ea912
DTITLE=Alfred MasterTracks - Blues
DYEAR=1900
DGENRE=Blues
TTITLE0=P.T. Shuffle DEMO
TTITLE1=P.T. Shuffle
TTITLE2=Backwards Blues
TTITLE3=Blues for Muddy
TTITLE4=Blues Alert DEMO
TTITLE5=Blues Alert
TTITLE6=T-Bone Strut DEMO
TTITLE7=T-Bone Strut
TTITLE8=Blues For J.S. DEMO
TTITLE9=Blues For J.S.
TTITLE10=Doo-Wah Blues
TTITLE11=Hip-Hop Blues
TTITLE12=Gospel Blues
TTITLE13=Dawg Gone Blues
TTITLE14=Blues on the Bayou
TTITLE15=Tower Time DEMO
TTITLE16=Tower Time
TTITLE17=T's Blues
EXTD=
EXTT0=
EXTT1=
EXTT2=
EXTT3=
EXTT4=
EXTT5=
EXTT6=
EXTT7=
EXTT8=
EXTT9=
EXTT10=
EXTT11=
EXTT12=
EXTT13=
EXTT14=
EXTT15=
EXTT16=
EXTT17=
PLAYORDER=
